<?xml version="1.0" encoding="utf-8"?>
<!-- Generator: Adobe Illustrator 22.1.0, SVG Export Plug-In . SVG Version: 6.00 Build 0)  -->
<svg version="1.1" id="Capa_1" xmlns="http://www.w3.org/2000/svg" xmlns:xlink="http://www.w3.org/1999/xlink" x="0px" y="0px"
	 viewBox="0 0 288.1 288.1" style="enable-background:new 0 0 288.1 288.1;" xml:space="preserve">
<style type="text/css">
	.st0{fill:#FFFFFF;}
</style>
<path class="st0" d="M253.1,35.4c-22.6-22.6-52.7-35.1-84.7-35.1s-62.1,12.5-84.7,35.1C45,74.1,38.3,132.7,63.6,178.3L9.5,232.4
	c-12.7,12.7-12.7,33.3,0,45.9c6.1,6.1,14.3,9.5,23,9.5s16.8-3.4,23-9.5l53.8-53.8c17.8,10.1,38.1,15.5,59.1,15.5
	c32,0,62.1-12.5,84.7-35.1C299.8,158.2,299.8,82.2,253.1,35.4z M231.9,183.7c-17,17-39.5,26.3-63.5,26.3s-46.6-9.3-63.5-26.3
	c-35-35-35-92,0-127c17-17,39.5-26.3,63.5-26.3s46.6,9.3,63.5,26.3C266.9,91.7,266.9,148.7,231.9,183.7z"/>
</svg>
